<?xml version="1.0" encoding="UTF-8" standalone="no"?>
<!-- Created with Inkscape (http://www.inkscape.org/) -->

<svg
   xmlns:dc="http://purl.org/dc/elements/1.1/"
   xmlns:cc="http://creativecommons.org/ns#"
   xmlns:rdf="http://www.w3.org/1999/02/22-rdf-syntax-ns#"
   xmlns:svg="http://www.w3.org/2000/svg"
   xmlns="http://www.w3.org/2000/svg"
   xmlns:sodipodi="http://sodipodi.sourceforge.net/DTD/sodipodi-0.dtd"
   xmlns:inkscape="http://www.inkscape.org/namespaces/inkscape"
   width="210mm"
   height="297mm"
   viewBox="0 0 744.09448819 1052.3622047"
   id="svg2"
   version="1.1"
   inkscape:version="0.91 r13725"
   sodipodi:docname="deveel-math.svg">
  <defs
     id="defs4" />
  <sodipodi:namedview
     id="base"
     pagecolor="#ffffff"
     bordercolor="#666666"
     borderopacity="1.0"
     inkscape:pageopacity="0.0"
     inkscape:pageshadow="2"
     inkscape:zoom="0.35"
     inkscape:cx="-374.44012"
     inkscape:cy="502.9287"
     inkscape:document-units="mm"
     inkscape:current-layer="layer1"
     showgrid="false"
     showborder="false"
     inkscape:showpageshadow="false"
     inkscape:window-width="1920"
     inkscape:window-height="1123"
     inkscape:window-x="0"
     inkscape:window-y="25"
     inkscape:window-maximized="1" />
  <metadata
     id="metadata7">
    <rdf:RDF>
      <cc:Work
         rdf:about="">
        <dc:format>image/svg+xml</dc:format>
        <dc:type
           rdf:resource="http://purl.org/dc/dcmitype/StillImage" />
        <dc:title></dc:title>
      </cc:Work>
    </rdf:RDF>
  </metadata>
  <g
     inkscape:label="Layer 1"
     inkscape:groupmode="layer"
     id="layer1">
    <g
       style="font-style:normal;font-weight:normal;font-size:12px;font-family:Dialog;color-interpolation:auto;fill:#000000;fill-opacity:1;stroke:#000000;stroke-width:1;stroke-linecap:square;stroke-linejoin:miter;stroke-miterlimit:10;stroke-dasharray:none;stroke-dashoffset:0;stroke-opacity:1;color-rendering:auto;image-rendering:auto;shape-rendering:auto;text-rendering:auto"
       id="g7071"
       transform="matrix(14.161498,0,0,3.992495,-1734.9151,-1768.9168)">
      <g
         id="g7061">
        <g
           id="g7063">
          <path
             id="path7065"
             d="m 152.2969,311.9062 q 0,21.9376 -11.8125,34.3126 -10.4063,11.1093 -26.1563,11.1093 -21.6562,0 -36.2812,-31.0781 -12.7969,25.3125 -35.1563,25.3125 -16.1718,0 -26.6484,-11.25 -10.4766,-11.25 -10.4766,-28.6875 0,-18.1406 9.5625,-29.1094 9.2813,-10.4062 23.9063,-10.4062 19.6875,0 31.9218,24.75 6.0469,-16.3125 15.1172,-23.2735 9.0704,-6.9609 24.5391,-6.9609 18.2813,0 29.8828,12.7969 11.6016,12.7969 11.6016,32.4843 z m -6.8907,0 q 0,-15.1874 -8.6484,-25.5937 -8.6484,-10.4063 -21.3047,-10.4063 -11.3906,0 -18.7031,9.1407 -2.5312,3.2343 -7.4531,14.625 -7.1719,17.1562 -8.0157,18.8437 8.0157,15.6094 15.0469,22.2188 8.0157,7.4531 18.5625,7.4531 13.7813,0 22.1485,-9.7734 8.3671,-9.7735 8.3671,-26.5079 z m -77.4843,-6.6093 q -11.1094,-23.9063 -29.1094,-23.9063 -11.9531,0 -19.0547,8.4375 -7.1016,8.4375 -7.1016,21.7969 0,12.9375 7.2422,21.8672 7.2422,8.9297 16.9454,8.9297 18.9843,0 31.0781,-37.125 z"
             inkscape:connector-curvature="0"
             style="stroke:none" />
        </g>
      </g>
    </g>
    <path
       style="fill:#ff0000;stroke:none;image-rendering:auto"
       inkscape:connector-curvature="0"
       d="m -1451.1319,-528.17001 c -71.7657,41.82954 -120.1657,102.67252 -152.7105,192.4159 -42.5587,114.84111 -34.2139,238.048098 24.1999,345.2837909 31.7104,58.5615281 103.476,131.5731191 145.2002,147.5442291 l 24.2001,9.1265 -45.8967,61.60362 c -55.0759,73.01159 -87.6208,135.37562 -106.8139,203.82384 -19.1931,65.40635 -13.3517,168.83932 11.6828,228.92168 23.3655,54.75879 78.4415,107.99629 124.3381,120.92555 30.8759,8.36585 40.8897,6.84485 114.3243,-15.97126 90.1242,-28.90061 151.876,-62.3641 171.0692,-93.54611 10.8483,-18.253 10.8483,-22.81614 0,-41.82957 -7.5104,-11.40818 -30.8759,-28.90054 -51.738,-39.54789 -85.9519,-42.59019 -110.9864,-85.9408 -105.145,-180.2475 5.8414,-89.74331 39.2207,-146.78357 140.1933,-238.04795 156.0485,-141.460028 326.2832,-205.345124 516.54552,-195.458194 192.76577,9.887126 346.31081,90.503958 447.28336,233.485034 129.344996,181.76832 170.234706,411.45063 124.338086,699.69426 -34.213826,211.42928 -96.800126,367.33938 -200.276116,499.67288 -106.81394,136.1361 -247.00724,173.4025 -433.93163,116.3623 -63.42077,-19.0134 -236.99342,-85.9409 -236.99342,-91.2646 0,-2.2817 23.36556,-17.4924 52.57249,-34.2241 28.37245,-16.7319 85.95184,-60.8431 127.67604,-98.8699 67.59318,-60.843 81.77941,-77.5747 118.4967,-148.3049 55.91042,-104.1936 78.44148,-187.85247 114.3243,-418.29541 39.22074,-248.69551 62.58628,-312.58082 150.20709,-406.88728 25.03452,-26.61888 45.89662,-50.95607 45.89662,-53.23775 0,-2.28146 -13.35175,-20.53446 -29.20695,-41.06893 l -29.20693,-36.5058 -40.05521,6.08441 c -90.95876,15.97111 -174.40715,53.23752 -262.02795,117.88325 -74.26906,55.5192 -126.00706,114.84114 -169.40022,193.17629 -55.91042,101.91214 -75.10356,170.36036 -116.82776,415.25337 -50.90352,298.89115 -64.25522,339.96005 -135.18642,412.97175 l -32.5448,33.4636 -61.7518,-13.6897 c -161.0554,-35.7453 -348.8143,-5.3237 -446.4489,73.7721 -78.4414,62.364 -90.9588,161.9945 -27.538,216.7531 83.4484,71.4905 193.6003,69.9695 362.166,-4.5632 l 84.2829,-38.0267 60.9173,22.816 c 131.014,50.1954 327.1177,80.6168 458.96615,71.4905 206.11752,-14.4502 407.22813,-78.3353 575.79388,-181.0079 80.944926,-50.1955 221.138236,-174.163 288.73146,-256.3009 97.63453,-119.4045 171.90365,-268.46974 202.77953,-409.16926 55.07587,-247.1744 9.17934,-501.9543 -122.66909,-678.39908 l -25.869,-33.46348 45.0621,-42.5902 c 87.62076,-84.419559 125.17256,-183.289391 118.49666,-315.62292 -4.17232,-97.34876 -25.86901,-161.99443 -78.44144,-230.44276 -25.869,-34.98472 -124.33811,-113.32004 -132.68286,-106.47522 -0.83458,1.52107 7.51032,27.37935 18.35852,57.80083 43.39324,116.3622 35.04833,239.56922 -23.36556,344.52329 -32.54474,60.082569 -104.310424,136.136249 -127.675984,136.136249 -6.67586,0 -35.88279,-12.168597 -65.08972,-26.618875 -70.931126,-35.745166 -175.241626,-69.969484 -272.876226,-89.743334 -65.92424,-12.92922 -108.48291,-15.97132 -250.34517,-15.97132 -187.75887,-0.76041 -248.6762,6.08441 -373.84878,42.590197 -90.12427,25.858249 -166.06227,56.279637 -236.15897,93.5460542 L -1226.6558,20.177237 -1268.38,-0.35723517 C -1348.4904,-40.665749 -1421.0905,-135.73286 -1446.9595,-235.36319 c -20.0276,-77.57479 -12.5173,-195.45805 15.8552,-263.90641 11.6827,-28.13985 20.8621,-50.95599 20.0276,-50.95599 -1.669,0 -19.1932,9.88699 -40.0552,22.05558 z"
       id="path4161" />
    <g
       style="font-style:normal;font-weight:normal;font-size:12px;font-family:Dialog;color-interpolation:auto;fill:#000000;fill-opacity:1;stroke:#000000;stroke-width:1;stroke-linecap:square;stroke-linejoin:miter;stroke-miterlimit:10;stroke-dasharray:none;stroke-dashoffset:0;stroke-opacity:1;color-rendering:auto;image-rendering:auto;shape-rendering:auto;text-rendering:auto"
       id="g4868"
       transform="matrix(6.5539675,0,-1.9983084,4.9359892,-56.150293,-112.09167)">
      <g
         id="g4858">
        <g
           id="g4860">
          <path
             id="path4862"
             d="m 159.6094,385.875 -146.1094,0 0,-28.2656 67.3594,-78.8906 -67.3594,-71.4376 0,-27.5624 140.3438,0 0,24.4687 -110.6719,0 70.3125,74.5313 -70.0313,82.6874 116.1563,0 0,24.4688 z"
             inkscape:connector-curvature="0"
             style="stroke:none" />
        </g>
      </g>
    </g>
  </g>
</svg>
